<svg width="36" height="33" viewBox="0 0 36 33" fill="none" xmlns="http://www.w3.org/2000/svg">
<path fill-rule="evenodd" clip-rule="evenodd" d="M1.96638 21.4104C1.99623 21.9486 2.02078 22.347 2.1068 22.7407C2.14836 22.9326 2.01533 23.3555 1.48321 23.2622C1.18699 23.2104 0.889317 23.0978 0.663858 22.9121C0.42492 22.7171 0.299594 22.438 0.215027 22.1534C0.0288829 21.503 -0.377906 19.5526 0.864124 19.5798C1.14302 19.5859 1.38035 19.7036 1.55141 19.9105C1.88358 20.3188 1.93766 20.9095 1.96638 21.4104ZM35.8553 13.2688C35.8553 13.2688 34.6613 3.61051 26.1425 0.995785C21.3897 -0.464095 19.021 -0.0241934 16.1125 0.47181C12.6947 1.05236 8.59311 2.46817 5.6453 4.91849C3.63237 6.59043 1.60116 9.12092 0.824006 12.3037C0.402936 14.0302 0.356721 15.6918 0.679103 17.4975C0.796887 18.1529 1.74751 18.7609 1.75697 17.6928C1.86449 5.80986 11.9076 3.60129 12.2619 3.53081C12.3927 3.50721 12.5183 3.48236 12.6308 3.45205C12.7889 3.41564 12.971 3.38751 13.1177 3.41064C13.2068 3.42533 13.2863 3.58738 13.1469 3.65192C12.3413 4.0254 9.21428 5.05742 7.51364 6.50933C5.79196 7.98702 3.53048 10.3569 2.82265 14.4504C2.70197 15.1561 2.58499 18.7761 2.93064 21.3244C3.12995 22.7905 4.15855 24.7735 4.8452 25.6287C6.6885 27.9225 9.87221 29.8752 11.6062 30.4731C12.7104 30.8543 14.0484 30.9699 14.7296 31.1245C14.9701 31.1796 14.9405 31.4676 14.6986 31.5033C13.5972 31.6752 10.9393 31.0809 8.73898 30.0292C7.08807 29.2395 5.95115 28.1527 4.83878 26.9813C3.61456 25.6923 2.96081 24.3498 2.50636 24.4406C1.75922 24.5892 2.39387 26.1425 2.72348 26.7422C3.8527 28.7951 6.11563 30.5767 7.24132 31.1735C10.7628 33.0441 14.3241 33.0874 15.9421 32.9547C22.8636 32.3856 27.118 29.1494 29.0052 26.615C30.1085 25.1293 32.5807 21.9986 32.523 17.4226C32.5149 16.693 32.5826 11.6273 30.8755 8.98559C30.4905 8.38411 29.3238 5.918 24.9287 3.81397C24.588 3.65067 23.0857 2.91385 21.8578 2.88088C21.338 2.86744 20.2948 2.82603 20.3922 2.22735C20.4612 1.80605 23.0241 2.36175 23.2924 2.43473C25.1399 2.92932 27.5047 4.31044 29.1405 5.52623C34.2274 9.30657 33.7168 17.3189 33.7168 17.3189C33.5001 25.8419 28.3844 29.4491 24.7052 31.5803C24.6333 31.6205 24.3699 31.9482 24.4555 32.0763C24.5423 32.2049 24.7183 32.1902 24.8943 32.1748C26.307 32.0371 27.6817 31.0144 28.8566 30.117C34.9261 25.484 35.2351 21.8685 35.5747 20.5057C36.0672 18.5245 36.0904 14.5216 35.8553 13.2688ZM27.2434 15.8099C27.0705 15.7412 26.9138 15.6791 26.7875 15.6259C26.3298 15.4342 25.2016 15.128 24.2953 14.8815C23.7927 14.7452 23.2726 14.6038 23.1747 14.5628C23.076 14.4106 22.8578 13.4333 22.7518 12.9592C22.6976 12.7141 22.6541 12.5208 22.6301 12.4374C22.5478 12.1395 22.4445 11.9724 22.1639 12.0037C22.1629 12.0037 22.1421 12.0055 22.1403 12.0055C22.0412 12.0204 20.6974 12.3725 18.4964 12.9501C17.0163 13.3389 15.4862 13.7404 15.3897 13.7576C15.2666 13.7755 15.1951 13.8445 14.2333 15.3972C13.9451 15.8631 13.5861 16.4432 13.5286 16.5053C13.4946 16.5282 13.2904 16.6252 13.0749 16.7284C12.4633 17.0205 11.3256 17.5652 10.3504 18.1411C9.27301 18.7787 7.19988 20.1355 7.04463 20.4379C6.98662 20.5504 6.98535 20.6666 7.0397 20.7562C7.11296 20.8776 7.27647 20.9362 7.47702 20.9144C7.51992 20.9097 7.56521 20.9015 7.6105 20.8892C7.81692 20.8342 14.3743 19.4854 18.1355 18.845C19.0753 18.685 20.2623 18.5275 21.6617 18.3755C25.107 18.0025 28.5766 17.7995 28.7776 17.8215C28.981 17.8457 29.1873 17.7603 29.3283 17.595C29.4436 17.4607 29.5047 17.2903 29.4997 17.1144C29.4889 16.7671 28.7641 16.4172 27.2434 15.8099Z" fill="#C8102E"/>
</svg>
