<svg width="135" height="33" viewBox="0 0 135 33" fill="none" xmlns="http://www.w3.org/2000/svg">
<path fill-rule="evenodd" clip-rule="evenodd" d="M1.90826 21.386C1.93722 21.9236 1.96105 22.3216 2.04452 22.7148C2.08485 22.9065 1.95576 23.3289 1.43937 23.2357C1.1519 23.184 0.86303 23.0715 0.644235 22.886C0.41236 22.6912 0.290738 22.4125 0.208671 22.1282C0.0280291 21.4786 -0.366735 19.5304 0.838581 19.5575C1.10923 19.5636 1.33955 19.6812 1.50555 19.8878C1.82791 20.2957 1.88038 20.8857 1.90826 21.386ZM34.7955 13.2537C34.7955 13.2537 33.6367 3.6064 25.3697 0.994652C20.7574 -0.463567 18.4588 -0.0241658 15.6362 0.471273C12.3194 1.05116 8.3391 2.46536 5.47842 4.91289C3.525 6.58293 1.55383 9.11054 0.799649 12.2897C0.391025 14.0142 0.346176 15.6739 0.659029 17.4776C0.773332 18.1322 1.69585 18.7396 1.70504 17.6727C1.80937 5.80325 11.5556 3.59719 11.8995 3.52679C12.0264 3.50322 12.1483 3.4784 12.2575 3.44812C12.4109 3.41175 12.5876 3.38365 12.7299 3.40675C12.8164 3.42143 12.8936 3.5833 12.7583 3.64776C11.9765 4.02082 8.94192 5.05166 7.29154 6.50192C5.62076 7.97793 3.42612 10.3451 2.73921 14.4339C2.62211 15.1388 2.50858 18.7547 2.84401 21.3001C3.03743 22.7646 4.03563 24.7453 4.70198 25.5996C6.4908 27.8907 9.58039 29.8412 11.2632 30.4384C12.3347 30.8192 13.6331 30.9347 14.2942 31.089C14.5276 31.1441 14.4988 31.4318 14.2641 31.4674C13.1952 31.6391 10.616 31.0455 8.48066 29.995C6.87855 29.2062 5.77524 28.1206 4.69575 26.9506C3.50772 25.6631 2.87329 24.3221 2.43228 24.4128C1.70722 24.5612 2.32311 26.1128 2.64297 26.7117C3.73881 28.7623 5.93486 30.5419 7.02727 31.1381C10.4447 33.0065 13.9007 33.0497 15.4709 32.9172C22.1878 32.3487 26.3164 29.1162 28.1479 26.5847C29.2185 25.1007 31.6176 21.9735 31.5617 17.4028C31.5537 16.674 31.6195 11.6141 29.9628 8.97537C29.5893 8.37457 28.457 5.91126 24.1918 3.80963C23.8612 3.64651 22.4033 2.91054 21.2117 2.8776C20.7073 2.86418 19.6949 2.82281 19.7894 2.22482C19.8564 1.80399 22.3435 2.35906 22.6039 2.43195C24.3967 2.92599 26.6917 4.30554 28.2791 5.51994C33.2156 9.29598 32.7201 17.2992 32.7201 17.2992C32.5099 25.8125 27.5454 29.4156 23.9749 31.5444C23.9051 31.5845 23.6496 31.9118 23.7326 32.0398C23.8168 32.1683 23.9877 32.1536 24.1585 32.1381C25.5293 32.0006 26.8634 30.9791 28.0037 30.0827C33.8937 25.455 34.1936 21.8437 34.5231 20.4824C35.001 18.5034 35.0236 14.5051 34.7955 13.2537Z" fill="#C8102E"/>
<path fill-rule="evenodd" clip-rule="evenodd" d="M25.8051 15.543C25.6356 15.4775 25.4821 15.4184 25.3583 15.3677C24.9098 15.185 23.8042 14.8933 22.916 14.6584C22.4235 14.5285 21.9138 14.3938 21.8179 14.3548C21.7212 14.2098 21.5074 13.2785 21.4035 12.8268C21.3504 12.5933 21.3077 12.4091 21.2842 12.3296C21.2035 12.0458 21.1023 11.8866 20.8273 11.9164C20.8264 11.9164 20.806 11.9182 20.8043 11.9182C20.7071 11.9324 19.3903 12.2678 17.2333 12.8182C15.7829 13.1886 14.2834 13.5712 14.1889 13.5876C14.0682 13.6046 13.9981 13.6703 13.0557 15.1498C12.7732 15.5937 12.4214 16.1464 12.365 16.2056C12.3317 16.2274 12.1316 16.3198 11.9204 16.4182C11.321 16.6965 10.2062 17.2155 9.25051 17.7642C8.19469 18.3717 6.16309 19.6644 6.01095 19.9526C5.95411 20.0598 5.95286 20.1705 6.00612 20.2559C6.07791 20.3715 6.23815 20.4274 6.43468 20.4066C6.47672 20.4021 6.5211 20.3943 6.56549 20.3826C6.76777 20.3302 13.1938 19.0451 16.8797 18.4349C17.8006 18.2824 18.9639 18.1324 20.3352 17.9875C23.7115 17.6321 27.1116 17.4387 27.3086 17.4596C27.5079 17.4827 27.7101 17.4014 27.8482 17.2439C27.9612 17.1159 28.021 16.9536 28.0162 16.7859C28.0056 16.455 27.2954 16.1216 25.8051 15.543Z" fill="white"/>
<path fill-rule="evenodd" clip-rule="evenodd" d="M127.509 22.2196H127.89L128.249 23.2367H128.256L128.611 22.2196H128.997V23.5453H128.746V22.4393H128.738L128.352 23.5453H128.151L127.766 22.4393H127.759V23.5453H127.509V22.2196ZM126.27 22.2196H127.314V22.4332H126.917V23.5453H126.667V22.4332H126.27V22.2196ZM47.9859 18.1561C48.5524 17.5238 49.5578 17.6456 50.4375 17.4014C51.9731 16.9758 54.3678 15.8583 54.303 13.8976C54.2454 12.1873 52.596 11.1805 50.6659 10.8892C49.3066 15.5533 47.0213 19.7058 44.8399 23.7616C44.1806 24.9899 43.5324 26.7981 41.8221 26.9403C40.9774 26.2105 41.2632 25.1527 41.394 24.3984C41.7791 22.1999 42.8039 19.8166 43.7028 17.9036C44.9651 15.2103 46.7094 12.6921 48.4717 10.7629C47.6775 10.7878 47.1789 10.8986 46.5932 10.5282C46.079 8.26718 48.4454 7.7861 50.0759 7.6848C53.8443 7.4491 57.6424 9.59694 57.5479 13.4805C57.4713 16.626 54.0892 18.6901 50.8926 18.9496C49.9952 19.0232 48.6127 19.1353 47.9859 18.1561ZM103.283 15.3647C103.856 14.2432 104.237 13.2297 104.851 11.8444C105.121 11.2339 106.642 8.44606 105.198 8.09392C105.176 8.08767 105.11 8.0858 105.088 8.09392C102.635 8.784 100.878 13.4938 99.3554 15.4465C97.4828 15.4012 95.2036 15.2519 95.299 16.6303C95.3753 17.7554 97.0173 17.9772 97.9675 18.5265C97.6186 19.6236 95.5236 24.0151 97.3105 25.145C99.1838 26.3293 100.161 23.5708 100.584 22.4104C101.115 20.9516 101.512 19.656 102.126 18.5576C103.604 18.451 105.234 17.9452 106.444 17.9276C106.12 19.2144 105.405 21.0075 106.178 22.6699C107.55 23.5526 108.573 22.5884 109.05 21.6996C109.809 20.2854 109.924 17.7675 110.49 16.633C111.373 16.1019 112.755 16.0406 112.97 14.8844C112.464 14.3877 111.675 14.8991 111.001 14.8712C111.185 13.944 111.648 12.9646 111.969 12.0086C112.284 11.0626 112.905 9.90288 112.152 8.91824C110.62 9.17751 109.968 10.5727 109.318 11.6558C108.6 12.8504 108.026 14.1391 107.32 15.2842C105.96 15.2979 104.74 15.4426 103.283 15.3647ZM65.2236 8.4598C63.5595 7.91504 60.8145 9.22341 59.9281 10.5162C59.359 11.3464 59.1615 12.9767 60.2626 13.2795C61.6469 13.6593 62.6926 12.0685 63.2809 11.4256C64.181 10.4426 64.9685 9.76317 65.2236 8.4598ZM129.14 10.8106C127.786 10.4575 127.227 11.4944 126.434 12.4458C125.794 13.2119 125.404 13.9839 125.038 14.0912C124.135 14.3592 122.72 13.5139 121.949 13.7376C121.689 13.8118 121.266 14.1641 121.256 14.6153C121.227 15.7955 122.658 15.9761 123.808 16.4001C123.297 17.509 122.631 18.8654 122.275 20.3627C121.947 21.7435 121.579 23.7695 122.348 25.221C123.287 25.0673 123.509 23.9484 123.824 23.243C124.911 20.8141 125.932 18.2913 127.29 16.2051C129.425 16.0607 131.627 15.4603 133.314 15.0347C133.92 14.8835 134.782 14.9453 135 14.2752C134.562 13.754 133.704 13.9373 133.004 13.9301C131.342 13.9084 129.549 14.0265 128.42 14.0053C128.817 13.1626 129.959 12.1398 129.14 10.8106ZM84.324 18.7569C84.7276 17.0972 86.2193 16.46 87.9251 16.0242C88.3881 16.0442 87.7253 16.5178 87.7694 16.7953C87.6588 17.0991 87.4973 17.3533 87.5238 17.7856C86.466 18.1191 85.7263 18.7483 84.324 18.7569ZM75.7014 20.2381C76.6961 19.3381 77.5071 18.4611 78.637 17.3903C79.3998 16.6664 81.4525 15.4198 80.8625 13.8736C80.5414 13.0349 79.0829 12.8602 78.0457 12.8588C76.5635 12.8576 74.6749 13.3182 73.1606 13.2648C72.6252 13.2458 72.1406 12.8095 71.7303 13.1438C70.3491 16.0389 74.7116 15.8472 76.8518 15.611C75.3008 17.2898 72.5687 18.3149 71.2175 20.2052C70.8638 20.6972 70.4184 21.4811 70.7347 22.2981C71.3123 22.7593 71.9699 22.4421 72.602 22.4204C75.472 22.3327 78.7608 23.276 80.8966 22.2643C81.3332 22.057 81.6044 21.6777 82.0258 21.3879C84.6416 22.2277 86.499 20.7368 88.0243 19.8874C88.9485 21.133 92.7169 21.2143 93.027 19.5934C92.4317 18.5816 90.7976 19.1526 90.4955 18.0299C90.1805 16.8684 92.1629 15.1997 90.925 13.9493C90.4405 13.617 89.9117 14.1307 89.6118 13.9382C85.8628 13.468 81.9574 15.5127 81.0076 18.2913C80.7533 19.0268 80.9352 19.9656 81.0878 20.6094C79.496 21.2696 77.4389 20.4743 75.7014 20.2381ZM60.4645 14.3851C59.9535 14.1502 59.7366 14.3077 59.4982 14.5989C57.9623 16.4627 54.4676 19.364 54.7831 22.4008C54.8976 23.4876 55.5205 24.8663 56.9167 24.4037C57.3278 24.0396 57.162 23.5499 57.3545 23.0826C58.4716 20.3436 61.7033 18.4238 60.4645 14.3851ZM70.8074 15.2344C69.5465 14.7831 67.4165 15.0735 65.5405 14.9748C63.8599 14.8844 61.669 14.2699 61.7769 15.7192C61.9038 17.4339 65.3368 17.2533 67.134 17.0827C65.8691 18.2557 64.3718 19.3933 62.9419 20.5856C61.693 21.6256 59.4211 22.8592 60.0414 25.1989C61.4429 25.9957 63.1051 25.1948 64.9548 25.1251C68.4392 24.9961 71.4138 26.0407 74.7339 25.7508C76.0306 25.6364 78.0635 25.2023 77.9618 23.7866C77.2258 23.3532 76.6022 23.807 75.8936 23.8821C72.4866 24.2445 69.276 22.3382 65.4014 22.5893C66.3993 21.5488 67.713 20.5086 68.8567 19.4147C69.8985 18.4166 71.4486 17.159 70.8074 15.2344ZM114.383 21.4082C114.827 20.1093 115.377 17.1092 113.554 16.6544C112.933 16.4997 112.077 16.6784 111.621 17.0808C111.622 17.7634 112.376 17.6207 112.378 18.3024C111.912 19.688 109.952 22.2735 111.63 23.8157C113.136 25.2015 115.608 23.5356 116.367 22.9683C116.947 22.5373 117.445 21.9531 117.918 21.8761C118.096 23.6481 118.776 24.8706 120.37 25.0948C120.843 24.5784 120.439 23.9918 120.443 23.3294C120.452 22.2754 120.812 21.0573 121.046 20.0233C121.29 18.9313 121.913 17.7292 121.1 16.7123C120.151 16.5014 119.751 17.2975 119.331 17.8013C118 19.4008 116.551 20.6352 114.383 21.4082Z" fill="#231F20"/>
</svg>
