<svg version="1" xmlns="http://www.w3.org/2000/svg" width="933.333" height="933.333" viewBox="0 0 700 700"><path d="M364.7 34.6c-.1.1-4.5.5-9.7.9-5.2.4-10.1.8-11 1-.8.1-4 .6-7 1-7.3.9-11 1.4-14 2-1.4.3-3.6.7-5 1-2.2.4-6.9 1.3-16 3.1-16.2 3.2-51.4 14.2-72.8 23C109.7 115.2 42.5 192.6 27.4 299c-2.6 18.3-2.8 21.2-2.8 35.5.1 19.4 2.8 34.2 8 44.7 2.7 5.4 5.7 7.8 9.7 7.8 2.9 0 8.6-2.5 8.8-3.8 0-.4.2-11.1.4-23.7.1-12.7.5-24.1.8-25.5.3-1.4.8-4.9 1.2-7.9.7-5.8.9-6.9 2.5-14.6.6-2.8 1.2-6.1 1.5-7.5.8-4 7.6-27.2 9-30.5.7-1.7 2.9-7.3 5-12.5 7.6-19 17.2-37.1 29.3-55 30.3-44.8 72.6-77.9 122.2-95.8 13.5-4.8 30.4-9.2 35.7-9.2 2.7 0 2.7 0 .8 1.8-1.1 1.1-5.6 3.1-10 4.6-9.2 3.2-10 3.5-17.8 7-3.2 1.4-6 2.6-6.3 2.6-1 0-24.3 11.9-31.6 16.1-24.5 14.2-50.5 35.4-67.2 54.9-27.7 32.3-52.1 81.8-58.1 118-.3 1.9-.8 4.2-1 5-.2.8-.6 3.7-1 6.5-.3 2.7-.8 6.9-1.1 9.2-.7 4.6-.8 6.1-1.9 19.5-1.4 17.1-.8 61.9.9 74.9.3 1.9.7 5.7 1 8.6 1 9 4.5 25.1 7.6 34.3 3 9.1 6.3 15.8 15.4 30.8 12.7 21 20.8 32.4 34.6 48.6 5 5.9 20.7 21.4 27.5 27.2 11 9.4 32 24.4 34.2 24.4.3 0 1.4.6 2.2 1.4 6.7 6.1 51.9 25 67.1 28.1 15.1 3.1 23.7 4.5 29.4 4.9 12.8.9 11.5 4.8-1.6 4.9-7.5 0-25.1-1.1-28.8-1.8-21.3-4.3-35.5-8.3-44.7-12.5-2.4-1.1-4.5-2-4.9-2-.3 0-5.9-2.7-12.4-5.9-41.2-20.6-86.7-61-111.8-99.2-3.8-5.7-6.8-9.2-9-10.3-7.1-3.5-11.3-1.2-13.1 7.2-3.5 16.5 18.3 56.3 46.6 84.9 5.4 5.5 12.3 11.9 15.3 14.4 3 2.4 6.1 4.9 6.8 5.6 3.6 3.5 24 16.7 33.2 21.6 11.3 5.9 28.7 13.5 36 15.6 2.5.7 5.4 1.7 6.5 2.2 3.3 1.5 25.4 6.6 34 7.9 4.4.6 9.1 1.3 10.5 1.6 13.8 2.3 66.1 2.4 82.5 0 1.7-.2 5.7-.7 9-1 3.3-.4 7.1-.9 8.5-1.1 5.4-1.1 7.7-1.5 13.5-2.5 17.3-3.1 46.4-11.8 65-19.4 10.2-4.2 34.2-16.1 40.4-20 2.2-1.4 4.3-2.6 4.7-2.6.8 0 20.4-13.3 27.9-19 30.7-23 60.6-55.7 80.5-87.8 4.8-7.9 18-33.2 18-34.6 0-.4 1.1-3.1 2.4-5.9 5-11.1 14.2-41.2 16.1-53 .3-1.8 1-5.5 1.5-8.2.5-2.8 1.2-6.8 1.5-9 .3-2.2.7-5.4 1-7 1.8-11.8 2.8-27.9 2.9-44.5 0-13.9-1-36.6-1.8-37.8-.2-.4-.7-3.8-1-7.5-.6-6.4-5.1-28.6-7.5-36.7-.5-1.9-1.7-6.1-2.6-9.4-3.7-13.4-14.3-37.9-22.9-53.1-5.2-9.4-12.7-20.9-13.8-21.3-.4-.2-.8-.8-.8-1.3 0-2.1-16.2-20.9-26.1-30.3-20.6-19.7-43.9-34.4-71.9-45.6-22-8.8-54.8-16.5-69-16.3-2.3.1-6-3.8-6-6.2 0-1.1.7-3.1 1.6-4.4 1.6-2.2 2.1-2.3 8.8-1.7 3.9.3 8.7.8 10.6 1.1 8.3 1.4 43.6 11.5 50.5 14.5 1.1.5 7.2 3 13.5 5.5 48.4 19.5 86.8 49.1 112.3 86.7 14.9 22 26.1 46.8 32.6 72.5 2.7 10.4 5.8 26.2 6.6 33.8.4 3.3.9 6.9 1.1 8 2.6 13.7 2.5 88-.1 101.6-.3 1.2-.7 4.7-1 7.8-.3 3.1-.9 8.1-1.5 11.1-.5 3-1.1 7.1-1.4 9-.4 2.9-2 10.9-5.1 25.4-1.4 6.6-8.2 28.3-11.2 36-11.7 29.7-29.2 55.5-55.8 82.1-24.6 24.6-40.8 37.7-66 53-17 10.3-22.1 14.2-24 18.1-2 4.2-1.1 6.2 3.1 7 11 2 30.2-4.5 49.4-16.8 11.7-7.6 35.6-24.4 38-26.8.3-.3 2.8-2.3 5.5-4.5 23.1-18.4 46.3-42.3 62.2-64 4-5.5 7.7-10.5 8.2-11.1.5-.6 3.6-5.7 7-11.5 3.4-5.7 6.6-11.1 7.1-11.9 2.3-3.6 10.5-21.3 14-30 9.4-23.6 16.8-55.7 18.5-80 .1-1.9.6-9.1 1.1-16 1.6-23.3.8-86.9-1.1-89.9-.2-.4-.6-3.5-1-7.1-.3-3.5-.8-6.7-1-7-.2-.3-.6-2.1-.9-4-4-25.8-20.8-69.4-36.8-95.8-2.1-3.4-3.8-6.4-3.8-6.7 0-1.2-13.2-21.1-20.6-31-8.4-11.3-23-26.9-31.9-34-2.7-2.2-5.2-4.2-5.5-4.5-1.5-1.6-9.6-7.5-17.6-12.8C528.3 60.8 472 41.5 424 36.4c-3.6-.4-8.1-.9-10-1.1-3.8-.4-48.9-1.1-49.3-.7zm48.6 230.2c.9.9 5.2 11 9.7 22.4l8.2 20.7 5.1 1.4c5.1 1.5 21.5 5.4 25.5 6.2 1.1.2 9.4 2.2 18.4 4.4 30.1 7.4 63.6 19.6 75.5 27.5 5.8 3.8 6.7 10.4 2.3 16.7-2.6 3.6-6.3 4.6-20.2 5.4-5.9.3-12.2.8-14 1-1.8.2-7.3.6-12.3 1-4.9.3-11.2.8-14 1.1-9.7.8-15.6 1.4-20.7 2-2.9.3-7.1.7-9.3.9-10.9 1-17.3 1.6-20 2-1.6.2-5.2.7-8 1-16.8 2-20.5 2.5-25.5 3-3 .4-6.6.8-8 1-3.6.5-31.9 4.5-35.5 4.9-1.6.2-8.2 1.3-14.5 2.5-6.3 1.1-13.1 2.3-15 2.6-1.9.3-9.1 1.8-16 3.2-6.9 1.4-13.8 2.7-15.5 3-1.6.2-6.1 1.1-10 2-3.8.8-8.1 1.7-9.5 1.9-1.4.3-3.2.7-4 .9-.8.2-3.1.7-5 1-1.9.3-5.5 1-8 1.5s-5.6 1.2-7 1.4c-1.4.2-14.4 3-29 6.1-14.6 3.2-27.6 5.9-28.9 6.1-1.2.3-5.3 1.2-9 2-3.6.9-7.9 1.8-9.6 2.1-1.6.3-6.7 1.3-11.2 2.4-4.4 1-9.6 2.1-11.5 2.4-1.8.3-4.1.8-5 1.1-.9.3-2.5.6-3.5.8-1 .2-5.3 1.1-9.5 2-10.8 2.2-13.2 2.1-16.9-1.2-2.7-2.4-3-3.2-2.5-6 .7-3.1 6.4-8.7 16.1-15.8 2.2-1.6 4.2-3.1 4.5-3.5.3-.3 2.8-2 5.5-3.9 2.8-1.9 5.2-3.6 5.5-3.9.6-.7 18.3-12.4 27.5-18.3 11.5-7.3 23.2-13.8 38-21.1 20.7-10.3 20.3-10.1 25.9-20.8 15-28.6 20.8-38.8 23-40.2 1.2-.7 7.3-2.7 13.6-4.4 6.3-1.8 20.7-5.7 32-8.8 11.3-3.2 21.2-5.9 22-6 .8-.2 9.8-2.6 20-5.4 10.2-2.8 22.1-6 26.5-7.2 4.4-1.2 10-2.7 12.5-3.4 4.9-1.3 8.7-.6 11.3 2.3z"/><path d="M27.2 407.5c-9.6 4.1-14.7 24.4-10.4 41.6 1.6 6.2 7.1 16.3 11.3 20.6 7.8 8.1 20 11.3 26.8 7.2 4-2.4 4.3-5.9 1.6-20.9-.2-1.4-.6-6.9-.9-12.3-.9-14.8-4.2-25.8-9.5-31.4-4.9-5.2-13-7.2-18.9-4.8z"/></svg>